<svg version="1.2" xmlns="http://www.w3.org/2000/svg" viewBox="0 0 1920 1080" width="1920" height="1080"><style>.a{fill:#fff}.b{fill:#5e5e5e}</style><path class="a" d="m537.3 595.3l-1.7 0.5c-0.5 13.6 4.8 19.1 14.2 19.1 17.9 0 26.6-29.9 31.5-46.6l18.5-60.4c2.5-8.1 12.6-37.9 14.7-48.5 4.6 0 7.9 0 8.8 0 7.8 0 18.6 0.6 30.1 0.6 21.8 0 46.4-2.2 57.9-15 3-3.5 4.4-6.8 4.8-9.6 1-7.8-3.2-12.9-10.6-12.9-13.4 27.3-41.7 32.2-80.6 32.2-25.8 0-81.5-1.1-84.6-1.3l-1.6 6.8c3.2-0.3 23.9-0.6 44.1-0.7 4.1 0.6 5.2 2.6 4.5 7.7-0.4 2.8-1.3 6.4-2.5 11l-28.7 111.5c-2.6 9.9-8 14.4-12.4 14.4-3.7 0-6.6-3.1-6.4-8.8zm-3.8 0l-1.7 0.5c-0.5 13.6 4.8 19.1 14.2 19.1 17.9 0 26.6-29.9 31.5-46.6l18.5-60.4c2.5-8.1 12.6-37.9 14.7-48.5 4.6 0 7.9 0 8.8 0 7.8 0 18.6 0.6 30.1 0.6 21.8 0 46.4-2.2 57.9-15 3-3.5 4.4-6.8 4.8-9.6 1-7.8-3.2-12.9-10.6-12.9-13.4 27.3-41.7 32.2-80.6 32.2-25.8 0-81.5-1.1-84.6-1.3l-1.6 6.8c3.2-0.3 23.9-0.6 44.1-0.7 4 0.6 5.2 2.6 4.5 7.7-0.4 2.8-1.3 6.4-2.5 11l-28.7 111.5c-2.6 9.9-8.1 14.4-12.4 14.4-3.7 0-6.6-3.1-6.4-8.8zm129.1-38h-40.6q-1.1 6.1-2 11.6-0.6 5.6-1 10-0.3 2.5-0.4 5.6-0.2 3 0 5.8 0.3 2.5 1 4.4 0.9 1.7 2.6 1.7 1.3 0 3.1-1.7 1.8-1.7 3.7-4.7 2-3.1 3.9-7.5 2-4.4 3.4-10h23.7l-6.6 29.7q-3.2 3.6-7.2 6.1-4 2.5-8.3 4.1-4.4 1.4-8.8 2.3-4.3 0.5-8.2 0.5-7.3 0-13.2-2.5-6-2.5-10-8.6-4.1-6.1-5.9-16-1.6-10.3-0.2-25.3 1.3-13.5 4.7-26.6 3.5-13 9.7-23 6.3-10.2 15.7-16.3 9.5-6.1 22.8-6.1 14.4 0 20.8 8.6 6.6 8.6 4.8 26.9-0.7 7.4-2.7 16.3-1.9 8.6-4.8 14.7zm-18.3-33q0.9-8.6-0.3-11.6-1.2-3.1-3.2-3.1-2.3 0-4.6 3.1-2.1 2.7-4.2 7.7-2 4.7-3.9 11.1-1.9 6.1-3.4 13h16.4q0.6-3.3 1.3-6.9 0.5-3 1-6.6 0.6-3.6 0.9-6.7zm77-33.5q17.1 0 23.8 11.6 7.1 12.2 4.4 40.5-1.6 17.4-6 31.6-4.3 13.8-10.7 23-12.6 17.7-33.4 17.7-17.8 0-24.2-13-6.9-13.6-4.4-40.7 1.7-18.1 6.9-32.8 5.3-14.6 13.4-24.3 11.8-13.6 30.2-13.6zm-19.9 105.6q3.7 0 7-7.8 3.5-7.7 6.1-18.8 2.7-11.4 4.5-23.3 2-12.2 2.9-21.1 0.7-7.7 0.2-11.6-0.3-4.2-2.9-4.2-3.9 0-7.6 8.1-3.5 8-6.2 19.1-2.8 11.1-4.8 22.7-1.8 11.7-2.5 18.9-1.7 18 3.3 18zm44.4 16.6l24.4-119.2h23.5l0.2 20.8h1q4.3-10 10.1-16.9 5.9-6.9 14.4-6.9 0.6 0 1.7 0.3 1.3 0 2.7 0.8 1.5 0.5 3 1.9 1.6 1.1 3 3.4l-11.8 57h-15.7q1.3-17.1 0.7-23.8-0.7-6.9-3.6-6.9-1.4 0-3.3 1.4-1.7 1.1-3.8 5.2l-17.1 82.9zm88.2-119.2h30.5l-3.4 81.5 30.5-81.5h15.3l-46.1 119.2q-6.8 17.5-13 26.9-6.3 9.4-13 13.8-6.7 4.5-14.4 5.3-7.6 0.6-17.2 0.6l4-19.2q4.7 0 8.8-0.2 4.2-0.3 6.8-1.7 3.5-1.7 5.3-5.8 1.9-4.5 2.6-12.8 0.6-5.5 0.7-12.7 0.2-7.2 0.4-15.3z"/><path class="b" d="m1148 545.7l-5.7 52.3q-3.7 3.4-7.5 6.7-3.8 3-8.1 5.5-4.4 2.2-9.6 3.6-5 1.4-11.1 1.4-19.3 0-29.8-16.6-10.4-16.6-10.4-55.4 0-22.5 3.6-42.2 3.6-19.9 10.7-34.6 7-15 17.4-23.6 10.4-8.6 23.8-8.6 6.4 0 11.6 1.7 5.3 1.7 9.5 4.4 4.3 2.5 7.7 5.6 3.4 3 6.2 5.8l-5.2 51.6h-26q0.1-2.8 0.3-7.3 0.3-4.4 0.4-8.8 0.1-4.7 0.3-9.2 0.1-4.4 0.1-7.5 0-2.2-0.1-4.9-0.2-3.1-0.7-5.9-0.6-2.7-1.9-4.4-1.2-1.9-3.2-1.9-3.7 0-6.9 6.1-3 5.8-5.5 15.8-2.4 9.7-4.3 22.1-1.9 12.5-3.2 25.5-1.2 12.8-1.9 25.2-0.6 12.5-0.6 21.9 0 2.8 0.2 7 0.1 4.1 0.9 8 0.7 3.9 2.1 6.7 1.6 2.7 4.2 2.7 4.5 0 8.7-10.5 4.2-10.8 7.3-38.2zm3.6 67.3l13.2-119.2h23.5l2.2 20.8h1q3.3-10 8.5-16.9 5.2-6.9 13.7-6.9 0.6 0 1.7 0.3 1.3 0 2.8 0.8 1.6 0.5 3.1 1.9 1.8 1.1 3.4 3.4l-6.4 57h-15.7q-0.3-17.1-1.6-23.8-1.3-6.9-4.2-6.9-1.4 0-3.2 1.4-1.5 1.1-3.3 5.2l-9.2 82.9zm143.2-55.7h-40.6q-0.6 6.1-0.9 11.6-0.1 5.6-0.1 10 0 2.5 0.1 5.6 0.2 3 0.6 5.8 0.6 2.5 1.5 4.4 1 1.7 2.7 1.7 1.3 0 2.9-1.7 1.7-1.7 3.3-4.7 1.7-3.1 3.2-7.5 1.6-4.4 2.4-10h23.7l-3.8 29.7q-2.8 3.6-6.6 6.1-3.7 2.5-7.9 4.1-4.2 1.4-8.5 2.3-4.4 0.5-8.3 0.5-7.2 0-13.4-2.5-6.2-2.5-10.8-8.6-4.6-6.1-7.4-16-2.6-10.3-2.6-25.3 0-13.5 2.2-26.6 2.3-13 7.5-23 5.3-10.2 14.1-16.3 9-6.1 22.3-6.1 14.4 0 21.6 8.6 7.4 8.6 7.4 26.9 0 7.4-1.2 16.3-1.1 8.6-3.4 14.7zm-21.4-33q0-8.6-1.4-11.6-1.5-3.1-3.5-3.1-2.3 0-4.3 3.1-1.9 2.7-3.5 7.7-1.6 4.7-2.9 11.1-1.3 6.1-2.2 13h16.5q0.3-3.3 0.6-6.9 0.3-3 0.4-6.6 0.3-3.6 0.3-6.7zm41 88.7l-9.4-119.2h30.6l5.1 81.5 17.4-81.5h27.6l4.9 81.5 17.5-81.5h15.3l-28.8 119.2h-30.1l-5.4-60.4-14.5 60.4z"/></svg>